<mxfile host="app.diagrams.net" agent="Mozilla/5.0 (Windows NT 10.0; Win64; x64) AppleWebKit/537.36 (KHTML, like Gecko) Chrome/126.0.0.0 YaBrowser/24.7.0.0 Safari/537.36" version="24.7.17">
  <diagram id="C5RBs43oDa-KdzZeNtuy" name="Page-1">
    <mxGraphModel dx="771" dy="442" grid="1" gridSize="10" guides="1" tooltips="1" connect="1" arrows="1" fold="1" page="1" pageScale="1" pageWidth="827" pageHeight="1169" math="0" shadow="0">
      <root>
        <mxCell id="WIyWlLk6GJQsqaUBKTNV-0" />
        <mxCell id="WIyWlLk6GJQsqaUBKTNV-1" parent="WIyWlLk6GJQsqaUBKTNV-0" />
        <mxCell id="B-s8ODDs-o1GQJ7ZpXIE-16" style="edgeStyle=orthogonalEdgeStyle;rounded=0;orthogonalLoop=1;jettySize=auto;html=1;entryX=0.5;entryY=0;entryDx=0;entryDy=0;endArrow=none;endFill=0;" edge="1" parent="WIyWlLk6GJQsqaUBKTNV-1" source="B-s8ODDs-o1GQJ7ZpXIE-1" target="B-s8ODDs-o1GQJ7ZpXIE-3">
          <mxGeometry relative="1" as="geometry" />
        </mxCell>
        <mxCell id="B-s8ODDs-o1GQJ7ZpXIE-17" style="edgeStyle=orthogonalEdgeStyle;rounded=0;orthogonalLoop=1;jettySize=auto;html=1;exitX=0.5;exitY=1;exitDx=0;exitDy=0;entryX=0.5;entryY=0;entryDx=0;entryDy=0;endArrow=none;endFill=0;" edge="1" parent="WIyWlLk6GJQsqaUBKTNV-1" source="B-s8ODDs-o1GQJ7ZpXIE-1" target="B-s8ODDs-o1GQJ7ZpXIE-6">
          <mxGeometry relative="1" as="geometry" />
        </mxCell>
        <mxCell id="B-s8ODDs-o1GQJ7ZpXIE-18" style="edgeStyle=orthogonalEdgeStyle;rounded=0;orthogonalLoop=1;jettySize=auto;html=1;exitX=0.5;exitY=1;exitDx=0;exitDy=0;entryX=0.5;entryY=0;entryDx=0;entryDy=0;endArrow=none;endFill=0;" edge="1" parent="WIyWlLk6GJQsqaUBKTNV-1" source="B-s8ODDs-o1GQJ7ZpXIE-1" target="B-s8ODDs-o1GQJ7ZpXIE-5">
          <mxGeometry relative="1" as="geometry" />
        </mxCell>
        <mxCell id="B-s8ODDs-o1GQJ7ZpXIE-19" style="edgeStyle=orthogonalEdgeStyle;rounded=0;orthogonalLoop=1;jettySize=auto;html=1;exitX=0.5;exitY=1;exitDx=0;exitDy=0;entryX=0.5;entryY=0;entryDx=0;entryDy=0;endArrow=none;endFill=0;" edge="1" parent="WIyWlLk6GJQsqaUBKTNV-1" source="B-s8ODDs-o1GQJ7ZpXIE-1" target="B-s8ODDs-o1GQJ7ZpXIE-4">
          <mxGeometry relative="1" as="geometry" />
        </mxCell>
        <mxCell id="B-s8ODDs-o1GQJ7ZpXIE-1" value="Компания" style="rounded=0;whiteSpace=wrap;html=1;" vertex="1" parent="WIyWlLk6GJQsqaUBKTNV-1">
          <mxGeometry x="390" y="280" width="120" height="40" as="geometry" />
        </mxCell>
        <mxCell id="B-s8ODDs-o1GQJ7ZpXIE-12" style="edgeStyle=orthogonalEdgeStyle;rounded=0;orthogonalLoop=1;jettySize=auto;html=1;entryX=0.5;entryY=0;entryDx=0;entryDy=0;endArrow=none;endFill=0;" edge="1" parent="WIyWlLk6GJQsqaUBKTNV-1" source="B-s8ODDs-o1GQJ7ZpXIE-3" target="B-s8ODDs-o1GQJ7ZpXIE-11">
          <mxGeometry relative="1" as="geometry" />
        </mxCell>
        <mxCell id="B-s8ODDs-o1GQJ7ZpXIE-13" style="edgeStyle=orthogonalEdgeStyle;rounded=0;orthogonalLoop=1;jettySize=auto;html=1;exitX=0.5;exitY=1;exitDx=0;exitDy=0;entryX=0.5;entryY=0;entryDx=0;entryDy=0;endArrow=none;endFill=0;" edge="1" parent="WIyWlLk6GJQsqaUBKTNV-1" source="B-s8ODDs-o1GQJ7ZpXIE-3" target="B-s8ODDs-o1GQJ7ZpXIE-9">
          <mxGeometry relative="1" as="geometry" />
        </mxCell>
        <mxCell id="B-s8ODDs-o1GQJ7ZpXIE-14" style="edgeStyle=orthogonalEdgeStyle;rounded=0;orthogonalLoop=1;jettySize=auto;html=1;exitX=0.5;exitY=1;exitDx=0;exitDy=0;endArrow=none;endFill=0;" edge="1" parent="WIyWlLk6GJQsqaUBKTNV-1" source="B-s8ODDs-o1GQJ7ZpXIE-3" target="B-s8ODDs-o1GQJ7ZpXIE-10">
          <mxGeometry relative="1" as="geometry" />
        </mxCell>
        <mxCell id="B-s8ODDs-o1GQJ7ZpXIE-3" value="IT" style="rounded=0;whiteSpace=wrap;html=1;" vertex="1" parent="WIyWlLk6GJQsqaUBKTNV-1">
          <mxGeometry x="320" y="380" width="120" height="40" as="geometry" />
        </mxCell>
        <mxCell id="B-s8ODDs-o1GQJ7ZpXIE-4" value="Кадры" style="rounded=0;whiteSpace=wrap;html=1;" vertex="1" parent="WIyWlLk6GJQsqaUBKTNV-1">
          <mxGeometry x="620" y="380" width="120" height="40" as="geometry" />
        </mxCell>
        <mxCell id="B-s8ODDs-o1GQJ7ZpXIE-5" value="Маркетинг" style="rounded=0;whiteSpace=wrap;html=1;" vertex="1" parent="WIyWlLk6GJQsqaUBKTNV-1">
          <mxGeometry x="470" y="380" width="120" height="40" as="geometry" />
        </mxCell>
        <mxCell id="B-s8ODDs-o1GQJ7ZpXIE-6" value="Финансы" style="rounded=0;whiteSpace=wrap;html=1;" vertex="1" parent="WIyWlLk6GJQsqaUBKTNV-1">
          <mxGeometry x="170" y="380" width="120" height="40" as="geometry" />
        </mxCell>
        <mxCell id="B-s8ODDs-o1GQJ7ZpXIE-8" value="Маша" style="rounded=0;whiteSpace=wrap;html=1;" vertex="1" parent="WIyWlLk6GJQsqaUBKTNV-1">
          <mxGeometry x="150" y="520" width="120" height="40" as="geometry" />
        </mxCell>
        <mxCell id="B-s8ODDs-o1GQJ7ZpXIE-15" style="edgeStyle=orthogonalEdgeStyle;rounded=0;orthogonalLoop=1;jettySize=auto;html=1;entryX=0.5;entryY=0;entryDx=0;entryDy=0;endArrow=none;endFill=0;" edge="1" parent="WIyWlLk6GJQsqaUBKTNV-1" source="B-s8ODDs-o1GQJ7ZpXIE-9" target="B-s8ODDs-o1GQJ7ZpXIE-8">
          <mxGeometry relative="1" as="geometry" />
        </mxCell>
        <mxCell id="B-s8ODDs-o1GQJ7ZpXIE-9" value="Отдел разработки" style="rounded=0;whiteSpace=wrap;html=1;" vertex="1" parent="WIyWlLk6GJQsqaUBKTNV-1">
          <mxGeometry x="150" y="460" width="120" height="40" as="geometry" />
        </mxCell>
        <mxCell id="B-s8ODDs-o1GQJ7ZpXIE-10" value="Отдел тестирования" style="rounded=0;whiteSpace=wrap;html=1;" vertex="1" parent="WIyWlLk6GJQsqaUBKTNV-1">
          <mxGeometry x="490" y="460" width="120" height="40" as="geometry" />
        </mxCell>
        <mxCell id="B-s8ODDs-o1GQJ7ZpXIE-11" value="Отдел поддержки" style="rounded=0;whiteSpace=wrap;html=1;" vertex="1" parent="WIyWlLk6GJQsqaUBKTNV-1">
          <mxGeometry x="320" y="460" width="120" height="40" as="geometry" />
        </mxCell>
      </root>
    </mxGraphModel>
  </diagram>
</mxfile>
